<svg width="1024" height="1024" viewBox="0 0 1024 1024" fill="none" xmlns="http://www.w3.org/2000/svg">
<g id="glasses_square" clip-path="url(#clip0_1161_2734)">
<g id="owl">
<path id="Left Ear" d="M225.82 299.43C239.06 289.32 145.04 243.93 298.19 243.93L225.82 299.43Z" fill="#33665A"/>
<path id="Right Ear" d="M798.182 299.43C784.952 289.32 878.962 243.93 725.812 243.93L798.182 299.43Z" fill="#33665A"/>
<path id="Body" d="M511.999 191C628.209 194.6 718.78 215.01 802.399 299.43C910.789 408.83 908.579 532.9 906.959 677V677.001C880.299 731.63 845.78 777.07 814.14 829.8C762.71 915.53 745.76 1060.65 767.09 1185.99H256.909C278.239 1060.65 261.289 915.53 209.859 829.8C178.229 777.07 143.699 731.63 117.039 677C115.419 532.9 113.209 408.83 221.599 299.43C305.219 215.01 395.789 194.6 511.999 191Z" fill="#33665A"/>
<path id="Left Arm" d="M117.042 677C43.6118 849 28.6018 1005 95.3918 1185.99C256.912 1185.99 256.912 1185.99 256.912 1185.99C278.242 1060.65 261.292 915.53 209.862 829.8C178.232 777.07 143.702 731.63 117.042 677Z" fill="#244C43"/>
<path id="Right Arm" d="M906.962 677C980.392 849 995.402 1005 928.612 1185.99C767.092 1185.99 767.092 1185.99 767.092 1185.99C745.762 1060.65 762.712 915.53 814.142 829.8C845.782 777.07 880.302 731.63 906.962 677Z" fill="#244C43"/>
<path id="Face" d="M511.998 384.13C515.298 384.13 588.778 353 644.388 353C728.228 353 796.718 400.64 801.238 483.14C801.238 500.36 800.568 508.62 799.988 516.75C796.898 543.14 790.148 569.08 779.898 593.72C765.368 628.79 744.028 660.59 717.138 687.4C690.268 714.22 658.368 735.51 623.248 750C588.138 764.54 550.188 772 511.998 772C473.808 772 435.858 764.54 400.748 750C365.628 735.51 333.728 714.22 306.858 687.4C279.968 660.59 258.628 628.79 244.098 593.72C233.848 569.08 227.098 543.14 224.008 516.75C223.428 508.62 222.758 500.36 222.758 483.14C227.278 400.64 295.768 353 379.608 353C435.218 353 508.698 384.13 511.998 384.13Z" fill="#CDEAEF"/>
<path id="Left Eye" d="M387.03 445.2C359.05 435.1 328.25 449.69 318.35 477.82C308.25 505.5 322.84 536.3 350.97 546.2C378.65 556.3 409.45 541.71 419.35 513.58C429.45 485.9 414.86 455.1 387.03 445.2Z" fill="#254B40"/>
<path id="Right Eye" d="M636.97 445.2C664.95 435.1 695.75 449.69 705.65 477.82C715.75 505.5 701.16 536.3 673.03 546.2C645.35 556.3 614.55 541.71 604.65 513.58C594.55 485.9 609.14 455.1 636.97 445.2Z" fill="#254B40"/>
<path id="Nose" d="M511.999 573.19C572.239 573.54 536.209 640.61 515.729 676.83C515.729 679.62 508.269 679.62 508.269 676.83C487.789 640.61 451.759 573.54 511.999 573.19Z" fill="#254B40"/>
</g>
<path id="Subtract" fill-rule="evenodd" clip-rule="evenodd" d="M743.307 392.318C756.426 396.299 766.372 401.548 774.898 412.752C785.558 426.767 784.954 442.541 784.95 459.161L784.897 489.568C784.897 509.341 785.212 528.804 784.741 548.759C784.071 576.997 763.94 596.096 736.787 600.765C731.585 601.656 725.877 601.83 720.601 601.842L634.293 601.811C617.051 601.828 595.162 602.838 578.408 600.008C568.493 598.333 557.779 592.23 550.62 585.041C532.77 567.124 534.705 547.408 534.714 524.286L534.728 487.017C520.086 484.775 501.29 484.616 486.724 487.225C486.641 506.232 486.904 525.314 486.642 544.316C486.413 560.842 481.737 575.039 469.307 586.515C461.938 593.328 452.842 598.001 443.004 600.025C432.15 602.28 420.111 601.815 408.982 601.819H322.015C312.417 601.815 301.775 602.045 292.317 601.655C291.768 601.359 284.577 601.008 283.154 600.738C262.526 596.796 242.354 581.913 237.866 560.55C235.542 549.49 236.047 536.804 236.045 525.283L236.06 458.836C236.059 451.457 235.922 444.56 236.842 437.201C239.943 412.401 257.37 396.618 281.361 391.641C293.607 389.519 307.36 390.062 319.913 390.063L408.462 390.062C418.337 390.052 429.612 389.699 439.212 391.157C448.121 392.458 456.604 395.813 463.987 400.956C488.246 418.072 486.758 440.516 486.731 466.881C501.65 464.812 519.82 464.573 534.701 466.85C534.701 444.643 532.979 424.032 550.203 406.891C564.556 392.606 581.758 389.899 601.242 390.064C612.413 390.158 623.828 390.067 635.034 390.075L718.777 390.065C726.974 390.096 735.292 390.419 743.307 392.318ZM614.654 410.136C598.521 410.132 580.245 408.318 566.789 418.971C551.752 430.872 554.1 452.238 554.051 469.778C554.038 483.434 554.105 497.09 554.242 510.746C554.353 523.874 552.902 549.206 557.611 560.727C567.659 585.293 597.731 581.935 619.491 581.922L670.042 581.882L707.917 581.913C720.881 581.922 737.018 583.176 748.251 575.584C763.411 569.741 767.419 547.24 764.707 533.305C765.342 527.874 765.16 521.309 765.165 515.759L765.173 461.423C765.169 448.619 766.26 434.034 757.744 423.456C751.282 415.436 740.99 411.521 730.937 410.621C721.772 409.865 711.627 410.117 702.338 410.128L614.654 410.136ZM319.057 410.141C300.306 410.14 276.762 407.414 263.458 423.494C254.757 434.01 255.633 449.955 255.618 462.836L255.61 490.126C255.614 500.044 255.11 517.106 256.085 526.395C254.629 535.342 255.518 550.137 258.144 558.801C260.195 565.573 267.629 574.352 274.528 576.532C283.712 583.145 302.388 581.918 313.402 581.913L352.099 581.887L402.177 581.909C411.521 581.909 421.584 582.095 430.796 581.666C441.224 580.997 451.692 577.046 458.582 569.015C468.385 557.587 467.125 542.181 467.112 528.105L467.082 496.54L467.088 465.397C467.124 449.218 469.02 431.23 455.242 419.523C441.761 408.069 423.349 410.149 406.716 410.148L319.057 410.141Z" fill="#254B40"/>
</g>
<defs>
<clipPath id="clip0_1161_2734">
<rect width="1024" height="1024" fill="white"/>
</clipPath>
</defs>
</svg>
