<svg width="1024" height="1024" viewBox="0 0 1024 1024" fill="none" xmlns="http://www.w3.org/2000/svg">
<g id="hat_cap" clip-path="url(#clip0_1164_3121)">
<g id="owl">
<path id="Left Ear" d="M225.82 299.43C239.06 289.32 145.04 243.93 298.19 243.93L225.82 299.43Z" fill="#33665A"/>
<path id="Right Ear" d="M798.182 299.43C784.952 289.32 878.962 243.93 725.812 243.93L798.182 299.43Z" fill="#33665A"/>
<path id="Body" d="M511.999 191C628.209 194.6 718.78 215.01 802.399 299.43C910.789 408.83 908.579 532.9 906.959 677V677.001C880.299 731.63 845.78 777.07 814.14 829.8C762.71 915.53 745.76 1060.65 767.09 1185.99H256.909C278.239 1060.65 261.289 915.53 209.859 829.8C178.229 777.07 143.699 731.63 117.039 677C115.419 532.9 113.209 408.83 221.599 299.43C305.219 215.01 395.789 194.6 511.999 191Z" fill="#33665A"/>
<path id="Left Arm" d="M117.042 677C43.6118 849 28.6018 1005 95.3918 1185.99C256.912 1185.99 256.912 1185.99 256.912 1185.99C278.242 1060.65 261.292 915.53 209.862 829.8C178.232 777.07 143.702 731.63 117.042 677Z" fill="#244C43"/>
<path id="Right Arm" d="M906.962 677C980.392 849 995.402 1005 928.612 1185.99C767.092 1185.99 767.092 1185.99 767.092 1185.99C745.762 1060.65 762.712 915.53 814.142 829.8C845.782 777.07 880.302 731.63 906.962 677Z" fill="#244C43"/>
<path id="Face" d="M511.998 384.13C515.298 384.13 588.778 353 644.388 353C728.228 353 796.718 400.64 801.238 483.14C801.238 500.36 800.568 508.62 799.988 516.75C796.898 543.14 790.148 569.08 779.898 593.72C765.368 628.79 744.028 660.59 717.138 687.4C690.268 714.22 658.368 735.51 623.248 750C588.138 764.54 550.188 772 511.998 772C473.808 772 435.858 764.54 400.748 750C365.628 735.51 333.728 714.22 306.858 687.4C279.968 660.59 258.628 628.79 244.098 593.72C233.848 569.08 227.098 543.14 224.008 516.75C223.428 508.62 222.758 500.36 222.758 483.14C227.278 400.64 295.768 353 379.608 353C435.218 353 508.698 384.13 511.998 384.13Z" fill="#CDEAEF"/>
<path id="Left Eye" d="M387.03 445.2C359.05 435.1 328.25 449.69 318.35 477.82C308.25 505.5 322.84 536.3 350.97 546.2C378.65 556.3 409.45 541.71 419.35 513.58C429.45 485.9 414.86 455.1 387.03 445.2Z" fill="#254B40"/>
<path id="Right Eye" d="M636.97 445.2C664.95 435.1 695.75 449.69 705.65 477.82C715.75 505.5 701.16 536.3 673.03 546.2C645.35 556.3 614.55 541.71 604.65 513.58C594.55 485.9 609.14 455.1 636.97 445.2Z" fill="#254B40"/>
<path id="Nose" d="M511.999 573.19C572.239 573.54 536.209 640.61 515.729 676.83C515.729 679.62 508.269 679.62 508.269 676.83C487.789 640.61 451.759 573.54 511.999 573.19Z" fill="#254B40"/>
</g>
<g id="Caps">
<path id="Vector 13" d="M508.043 60.7756C484.826 59.101 479.319 74.3121 479.468 82.127C500.9 87.0112 543.406 93.8492 541.977 82.127C540.191 67.4742 537.065 62.8689 508.043 60.7756Z" fill="#438E87"/>
<path id="Subtract" d="M504.911 77.522C614.895 69.5703 836.741 114.873 844.252 359.695C844.129 359.611 793.823 325.357 504.911 325.357C215.644 325.357 174.512 359.695 174.512 359.695C178.536 229.905 250.964 67.4744 504.911 77.522ZM505.366 200.606C376.779 200.606 376.777 239.958 376.775 273.869V273.871H641.993C641.993 239.96 641.993 200.606 505.366 200.606Z" fill="#65B3A9"/>
<path id="Subtract_2" d="M504.468 77.9402C527.25 77.9402 550.526 75.0993 568.318 81.2898C675.217 118.485 693.847 260.339 689.764 333.319L504.468 330.388L329.889 333.319C322.744 260.339 342.872 118.485 448.211 81.2898C465.743 75.0996 481.686 77.9402 504.468 77.9402ZM505.36 200.606C376.773 200.606 376.771 239.958 376.77 273.868V273.87H641.988C641.988 239.959 641.987 200.606 505.36 200.606Z" fill="#95D0CC"/>
<path id="Vector 8" d="M839.07 358.338C853.832 377.537 883.234 426.294 893.673 468.407C972.897 448.72 966.125 399.572 839.07 358.338Z" fill="#438E87"/>
<path id="Vector 9" d="M824.002 333.826C835.321 332.019 863.292 338.454 922.688 384.599C957.664 411.772 953.228 433.092 936.612 447.84C964.968 419.889 884.709 374.424 838.149 358.018L824.002 333.826Z" fill="#65B3A9"/>
<path id="Vector 10" d="M172.73 360.531C230.247 336.046 271.627 331.266 377 330.807M377 330.807C413.959 330.646 467.431 330.807 520.995 330.807C568.92 330.807 608.398 331.041 641.549 331.682C755.455 333.883 794.657 340.048 845.15 358.857M377 330.807V274.289M377 274.289H641.549M377 274.289C370 249.692 386.4 200.5 508 200.5C629.6 200.5 647.699 249.692 641.549 274.289M641.549 331.682V274.289" stroke="#65B3A9" stroke-width="8"/>
<ellipse id="Ellipse 39" cx="412.047" cy="299.408" rx="8.92987" ry="8.37307" fill="#438E87"/>
<ellipse id="Ellipse 40" cx="461.164" cy="299.408" rx="8.92987" ry="8.37307" fill="#438E87"/>
<ellipse id="Ellipse 41" cx="510.278" cy="299.408" rx="8.92987" ry="8.37307" fill="#438E87"/>
<ellipse id="Ellipse 42" cx="559.391" cy="299.408" rx="8.92987" ry="8.37307" fill="#438E87"/>
<ellipse id="Ellipse 43" cx="608.504" cy="299.408" rx="8.92987" ry="8.37307" fill="#438E87"/>
</g>
</g>
<defs>
<clipPath id="clip0_1164_3121">
<rect width="1024" height="1024" fill="white"/>
</clipPath>
</defs>
</svg>
