<svg xmlns="http://www.w3.org/2000/svg" width="1024" height="1024" viewBox="0 0 1024 1024" fill="none" role="img" aria-hidden="true"><rect width="1024" height="1024" fill="#6cdac8"/><g id="owl"><path id="Left Ear" d="M225.82 299.43C239.06 289.32 145.04 243.93 298.19 243.93Z" fill="#33665a"/><path id="Right Ear" d="M798.18 299.43C784.95 289.32 878.96 243.93 725.81 243.93Z" fill="#33665a"/><path id="Body" d="M512 191C628.21 194.6 718.78 215.01 802.4 299.43C910.79 408.83 908.58 532.9 906.96 677C980.39 849 995.4 1005 928.61 1185.99C928.61 1185.99 95.39 1185.99 95.39 1185.99C28.6 1005 43.61 849 117.04 677C115.42 532.9 113.21 408.83 221.6 299.43C305.22 215.01 395.79 194.6 512 191Z" fill="#33665a"/><path id="Left Arm" d="M117.04 677C43.61 849 28.6 1005 95.39 1185.99C256.91 1185.99 256.91 1185.99 256.91 1185.99C278.24 1060.65 261.29 915.53 209.86 829.8C178.23 777.07 143.7 731.63 117.04 677Z" fill="#244c43"/><path id="Right Arm" d="M906.96 677C980.39 849 995.4 1005 928.61 1185.99C767.09 1185.99 767.09 1185.99 767.09 1185.99C745.76 1060.65 762.71 915.53 814.14 829.8C845.78 777.07 880.3 731.63 906.96 677Z" fill="#244c43"/><path id="Face" d="M512 384.13C515.3 384.13 588.78 353 644.39 353C728.23 353 796.72 400.64 801.24 483.14C801.24 500.36 800.57 508.62 799.99 516.75C796.9 543.14 790.15 569.08 779.9 593.72C765.37 628.79 744.03 660.59 717.14 687.4C690.27 714.22 658.37 735.51 623.25 750C588.14 764.54 550.19 772 512 772C512 772 512 772 512 772C473.81 772 435.86 764.54 400.75 750C365.63 735.51 333.73 714.22 306.86 687.4C279.97 660.59 258.63 628.79 244.1 593.72C233.85 569.08 227.1 543.14 224.01 516.75C223.43 508.62 222.76 500.36 222.76 483.14C227.28 400.64 295.77 353 379.61 353C435.22 353 508.7 384.13 512 384.13Z" fill="#cdeaef"/><path id="Left Eye" d="M387.03 445.2C359.05 435.1 328.25 449.69 318.35 477.82C308.25 505.5 322.84 536.3 350.97 546.2C378.65 556.3 409.45 541.71 419.35 513.58C429.45 485.9 414.86 455.1 387.03 445.2Z" fill="#254b40"/><path id="Right Eye" d="M636.97 445.2C664.95 435.1 695.75 449.69 705.65 477.82C715.75 505.5 701.16 536.3 673.03 546.2C645.35 556.3 614.55 541.71 604.65 513.58C594.55 485.9 609.14 455.1 636.97 445.2Z" fill="#254b40"/><path id="Nose" d="M512 573.19C572.24 573.54 536.21 640.61 515.73 676.83C515.73 679.62 508.27 679.62 508.27 676.83C487.79 640.61 451.76 573.54 512 573.19Z" fill="#254b40"/></g><path d="M532.0 912.0 L872.0 572.0 L848.0 548.0 L508.0 888.0 Z" fill="#dba46c"/><path d="M528.2 910.2 L868.2 570.2 L859.8 561.8 L519.8 901.8 Z" fill="#a8703f"/><path d="M929.5 470.5 L933.3 475.2 L936.2 480.6 L938.2 486.7 L939.1 493.4 L939.1 500.5 L938.0 508.0 L935.9 515.7 L932.9 523.4 L929.0 531.1 L924.2 538.6 L918.7 545.8 L912.5 552.5 L905.8 558.7 L898.6 564.2 L891.1 569.0 L883.4 572.9 L875.7 575.9 L868.0 578.0 L860.5 579.1 L853.4 579.1 L846.7 578.2 L840.6 576.2 L835.2 573.3 L830.5 569.5 L826.7 564.8 L823.8 559.4 L821.8 553.3 L820.9 546.6 L820.9 539.5 L822.0 532.0 L824.1 524.3 L827.1 516.6 L831.0 508.9 L835.8 501.4 L841.3 494.2 L847.5 487.5 L854.2 481.3 L861.4 475.8 L868.9 471.0 L876.6 467.1 L884.3 464.1 L892.0 462.0 L899.5 460.9 L906.6 460.9 L913.3 461.8 L919.4 463.8 L924.8 466.7 Z" fill="#dba46c"/><path d="M937.4 462.6 L940.4 466.3 L942.6 470.6 L943.9 475.5 L944.5 481.0 L944.2 486.8 L943.0 493.0 L941.0 499.4 L938.3 505.8 L934.8 512.3 L930.6 518.6 L925.8 524.7 L920.5 530.5 L914.7 535.8 L908.6 540.6 L902.3 544.8 L895.8 548.3 L889.4 551.0 L883.0 553.0 L876.8 554.2 L871.0 554.5 L865.5 553.9 L860.6 552.6 L856.3 550.4 L852.6 547.4 L849.6 543.7 L847.4 539.4 L846.1 534.5 L845.5 529.0 L845.8 523.2 L847.0 517.0 L849.0 510.6 L851.7 504.2 L855.2 497.7 L859.4 491.4 L864.2 485.3 L869.5 479.5 L875.3 474.2 L881.4 469.4 L887.7 465.2 L894.2 461.7 L900.6 459.0 L907.0 457.0 L913.2 455.8 L919.0 455.5 L924.5 456.1 L929.4 457.4 L933.7 459.6 Z" fill="#eceff2"/><path d="M866.0 520.0 L865.9 520.8 L865.8 521.6 L865.5 522.3 L865.2 523.0 L864.8 523.7 L864.2 524.2 L863.7 524.8 L863.0 525.2 L862.3 525.5 L861.6 525.8 L860.8 525.9 L860.0 526.0 L859.2 525.9 L858.4 525.8 L857.7 525.5 L857.0 525.2 L856.3 524.8 L855.8 524.2 L855.2 523.7 L854.8 523.0 L854.5 522.3 L854.2 521.6 L854.1 520.8 L854.0 520.0 L854.1 519.2 L854.2 518.4 L854.5 517.7 L854.8 517.0 L855.2 516.3 L855.8 515.8 L856.3 515.2 L857.0 514.8 L857.7 514.5 L858.4 514.2 L859.2 514.1 L860.0 514.0 L860.8 514.1 L861.6 514.2 L862.3 514.5 L863.0 514.8 L863.7 515.2 L864.2 515.8 L864.8 516.3 L865.2 517.0 L865.5 517.7 L865.8 518.4 L865.9 519.2 Z" fill="#c6ccd3"/><path d="M891.0 495.0 L890.9 495.8 L890.8 496.6 L890.5 497.3 L890.2 498.0 L889.8 498.7 L889.2 499.2 L888.7 499.8 L888.0 500.2 L887.3 500.5 L886.6 500.8 L885.8 500.9 L885.0 501.0 L884.2 500.9 L883.4 500.8 L882.7 500.5 L882.0 500.2 L881.3 499.8 L880.8 499.2 L880.2 498.7 L879.8 498.0 L879.5 497.3 L879.2 496.6 L879.1 495.8 L879.0 495.0 L879.1 494.2 L879.2 493.4 L879.5 492.7 L879.8 492.0 L880.2 491.3 L880.8 490.8 L881.3 490.2 L882.0 489.8 L882.7 489.5 L883.4 489.2 L884.2 489.1 L885.0 489.0 L885.8 489.1 L886.6 489.2 L887.3 489.5 L888.0 489.8 L888.7 490.2 L889.2 490.8 L889.8 491.3 L890.2 492.0 L890.5 492.7 L890.8 493.4 L890.9 494.2 Z" fill="#c6ccd3"/><path d="M916.0 470.0 L915.9 470.8 L915.8 471.6 L915.5 472.3 L915.2 473.0 L914.8 473.7 L914.2 474.2 L913.7 474.8 L913.0 475.2 L912.3 475.5 L911.6 475.8 L910.8 475.9 L910.0 476.0 L909.2 475.9 L908.4 475.8 L907.7 475.5 L907.0 475.2 L906.3 474.8 L905.8 474.2 L905.2 473.7 L904.8 473.0 L904.5 472.3 L904.2 471.6 L904.1 470.8 L904.0 470.0 L904.1 469.2 L904.2 468.4 L904.5 467.7 L904.8 467.0 L905.2 466.3 L905.8 465.8 L906.3 465.2 L907.0 464.8 L907.7 464.5 L908.4 464.2 L909.2 464.1 L910.0 464.0 L910.8 464.1 L911.6 464.2 L912.3 464.5 L913.0 464.8 L913.7 465.2 L914.2 465.8 L914.8 466.3 L915.2 467.0 L915.5 467.7 L915.8 468.4 L915.9 469.2 Z" fill="#c6ccd3"/><path d="M886.0 535.0 L885.9 535.8 L885.8 536.6 L885.5 537.3 L885.2 538.0 L884.8 538.7 L884.2 539.2 L883.7 539.8 L883.0 540.2 L882.3 540.5 L881.6 540.8 L880.8 540.9 L880.0 541.0 L879.2 540.9 L878.4 540.8 L877.7 540.5 L877.0 540.2 L876.3 539.8 L875.8 539.2 L875.2 538.7 L874.8 538.0 L874.5 537.3 L874.2 536.6 L874.1 535.8 L874.0 535.0 L874.1 534.2 L874.2 533.4 L874.5 532.7 L874.8 532.0 L875.2 531.3 L875.8 530.8 L876.3 530.2 L877.0 529.8 L877.7 529.5 L878.4 529.2 L879.2 529.1 L880.0 529.0 L880.8 529.1 L881.6 529.2 L882.3 529.5 L883.0 529.8 L883.7 530.2 L884.2 530.8 L884.8 531.3 L885.2 532.0 L885.5 532.7 L885.8 533.4 L885.9 534.2 Z" fill="#c6ccd3"/><path d="M911.0 510.0 L910.9 510.8 L910.8 511.6 L910.5 512.3 L910.2 513.0 L909.8 513.7 L909.2 514.2 L908.7 514.8 L908.0 515.2 L907.3 515.5 L906.6 515.8 L905.8 515.9 L905.0 516.0 L904.2 515.9 L903.4 515.8 L902.7 515.5 L902.0 515.2 L901.3 514.8 L900.8 514.2 L900.2 513.7 L899.8 513.0 L899.5 512.3 L899.2 511.6 L899.1 510.8 L899.0 510.0 L899.1 509.2 L899.2 508.4 L899.5 507.7 L899.8 507.0 L900.2 506.3 L900.8 505.8 L901.3 505.2 L902.0 504.8 L902.7 504.5 L903.4 504.2 L904.2 504.1 L905.0 504.0 L905.8 504.1 L906.6 504.2 L907.3 504.5 L908.0 504.8 L908.7 505.2 L909.2 505.8 L909.8 506.3 L910.2 507.0 L910.5 507.7 L910.8 508.4 L910.9 509.2 Z" fill="#c6ccd3"/><path d="M936.0 485.0 L935.9 485.8 L935.8 486.6 L935.5 487.3 L935.2 488.0 L934.8 488.7 L934.2 489.2 L933.7 489.8 L933.0 490.2 L932.3 490.5 L931.6 490.8 L930.8 490.9 L930.0 491.0 L929.2 490.9 L928.4 490.8 L927.7 490.5 L927.0 490.2 L926.3 489.8 L925.8 489.2 L925.2 488.7 L924.8 488.0 L924.5 487.3 L924.2 486.6 L924.1 485.8 L924.0 485.0 L924.1 484.2 L924.2 483.4 L924.5 482.7 L924.8 482.0 L925.2 481.3 L925.8 480.8 L926.3 480.2 L927.0 479.8 L927.7 479.5 L928.4 479.2 L929.2 479.1 L930.0 479.0 L930.8 479.1 L931.6 479.2 L932.3 479.5 L933.0 479.8 L933.7 480.2 L934.2 480.8 L934.8 481.3 L935.2 482.0 L935.5 482.7 L935.8 483.4 L935.9 484.2 Z" fill="#c6ccd3"/><path d="M810.0 440.0 L809.7 443.9 L809.0 447.8 L807.7 451.5 L806.0 455.0 L803.8 458.3 L801.2 461.2 L798.3 463.8 L795.0 466.0 L791.5 467.7 L787.8 469.0 L783.9 469.7 L780.0 470.0 L776.1 469.7 L772.2 469.0 L768.5 467.7 L765.0 466.0 L761.7 463.8 L758.8 461.2 L756.2 458.3 L754.0 455.0 L752.3 451.5 L751.0 447.8 L750.3 443.9 L750.0 440.0 L750.3 436.1 L751.0 432.2 L752.3 428.5 L754.0 425.0 L756.2 421.7 L758.8 418.8 L761.7 416.2 L765.0 414.0 L768.5 412.3 L772.2 411.0 L776.1 410.3 L780.0 410.0 L783.9 410.3 L787.8 411.0 L791.5 412.3 L795.0 414.0 L798.3 416.2 L801.2 418.8 L803.8 421.7 L806.0 425.0 L807.7 428.5 L809.0 432.2 L809.7 436.1 Z" fill="#ffffff"/><path d="M850.0 400.0 L849.8 402.6 L849.3 405.2 L848.5 407.7 L847.3 410.0 L845.9 412.2 L844.1 414.1 L842.2 415.9 L840.0 417.3 L837.7 418.5 L835.2 419.3 L832.6 419.8 L830.0 420.0 L827.4 419.8 L824.8 419.3 L822.3 418.5 L820.0 417.3 L817.8 415.9 L815.9 414.1 L814.1 412.2 L812.7 410.0 L811.5 407.7 L810.7 405.2 L810.2 402.6 L810.0 400.0 L810.2 397.4 L810.7 394.8 L811.5 392.3 L812.7 390.0 L814.1 387.8 L815.9 385.9 L817.8 384.1 L820.0 382.7 L822.3 381.5 L824.8 380.7 L827.4 380.2 L830.0 380.0 L832.6 380.2 L835.2 380.7 L837.7 381.5 L840.0 382.7 L842.2 384.1 L844.1 385.9 L845.9 387.8 L847.3 390.0 L848.5 392.3 L849.3 394.8 L849.8 397.4 Z" fill="#ffffff"/><path d="M756.0 400.0 L755.9 402.1 L755.5 404.1 L754.8 406.1 L753.9 408.0 L752.7 409.7 L751.3 411.3 L749.7 412.7 L748.0 413.9 L746.1 414.8 L744.1 415.5 L742.1 415.9 L740.0 416.0 L737.9 415.9 L735.9 415.5 L733.9 414.8 L732.0 413.9 L730.3 412.7 L728.7 411.3 L727.3 409.7 L726.1 408.0 L725.2 406.1 L724.5 404.1 L724.1 402.1 L724.0 400.0 L724.1 397.9 L724.5 395.9 L725.2 393.9 L726.1 392.0 L727.3 390.3 L728.7 388.7 L730.3 387.3 L732.0 386.1 L733.9 385.2 L735.9 384.5 L737.9 384.1 L740.0 384.0 L742.1 384.1 L744.1 384.5 L746.1 385.2 L748.0 386.1 L749.7 387.3 L751.3 388.7 L752.7 390.3 L753.9 392.0 L754.8 393.9 L755.5 395.9 L755.9 397.9 Z" fill="#ffffff"/><path d="M120.4 908.7 L131.0 920.4 L142.4 931.2 L154.5 941.1 L167.3 950.0 L180.7 957.8 L194.6 964.4 L208.9 969.9 L223.5 974.0 L238.2 977.0 L252.9 978.8 L267.6 979.4 L282.2 978.9 L296.7 977.5 L311.0 975.2 L325.2 972.0 L339.3 968.1 L353.4 963.4 L367.4 958.1 L381.3 952.0 L395.4 945.3 L409.5 938.0 L423.7 930.1 L438.0 921.6 L452.5 912.4 L407.5 827.6 L394.0 832.8 L381.1 837.3 L368.7 841.0 L356.9 844.1 L345.7 846.5 L335.1 848.2 L325.3 849.2 L316.2 849.7 L307.9 849.5 L300.4 848.8 L293.6 847.6 L287.8 846.1 L282.7 844.1 L278.5 841.9 L274.9 839.6 L272.1 837.1 L269.8 834.5 L267.9 831.8 L266.3 829.1 L264.9 826.2 L263.6 823.0 L262.3 819.5 L261.0 815.7 L259.6 811.3 Z" fill="#244c43"/><path d="M488.0 870.0 L487.5 876.5 L486.0 882.9 L483.6 889.1 L480.2 895.0 L476.0 900.4 L471.0 905.4 L465.3 909.7 L459.0 913.3 L452.2 916.2 L445.0 918.3 L437.6 919.6 L430.0 920.0 L422.4 919.6 L415.0 918.3 L407.8 916.2 L401.0 913.3 L394.7 909.7 L389.0 905.4 L384.0 900.4 L379.8 895.0 L376.4 889.1 L374.0 882.9 L372.5 876.5 L372.0 870.0 L372.5 863.5 L374.0 857.1 L376.4 850.9 L379.8 845.0 L384.0 839.6 L389.0 834.6 L394.7 830.3 L401.0 826.7 L407.8 823.8 L415.0 821.7 L422.4 820.4 L430.0 820.0 L437.6 820.4 L445.0 821.7 L452.2 823.8 L459.0 826.7 L465.3 830.3 L471.0 834.6 L476.0 839.6 L480.2 845.0 L483.6 850.9 L486.0 857.1 L487.5 863.5 Z" fill="#244c43"/><path d="M468.0 852.0 L467.7 854.1 L467.0 856.1 L465.7 858.1 L464.0 860.0 L461.8 861.7 L459.2 863.3 L456.3 864.7 L453.0 865.9 L449.5 866.8 L445.8 867.5 L441.9 867.9 L438.0 868.0 L434.1 867.9 L430.2 867.5 L426.5 866.8 L423.0 865.9 L419.7 864.7 L416.8 863.3 L414.2 861.7 L412.0 860.0 L410.3 858.1 L409.0 856.1 L408.3 854.1 L408.0 852.0 L408.3 849.9 L409.0 847.9 L410.3 845.9 L412.0 844.0 L414.2 842.3 L416.8 840.7 L419.7 839.3 L423.0 838.1 L426.5 837.2 L430.2 836.5 L434.1 836.1 L438.0 836.0 L441.9 836.1 L445.8 836.5 L449.5 837.2 L453.0 838.1 L456.3 839.3 L459.2 840.7 L461.8 842.3 L464.0 844.0 L465.7 845.9 L467.0 847.9 L467.7 849.9 Z" fill="#33665a"/><path d="M764.4 811.3 L762.9 815.8 L761.5 819.7 L760.2 823.3 L758.9 826.4 L757.5 829.3 L756.0 832.1 L754.3 834.7 L752.2 837.2 L749.5 839.7 L746.3 842.0 L742.4 844.2 L737.7 846.1 L732.2 847.6 L725.8 848.8 L718.7 849.6 L710.8 849.7 L702.1 849.3 L692.7 848.3 L682.6 846.7 L671.9 844.3 L660.5 841.3 L648.6 837.5 L636.1 833.1 L623.1 827.9 L576.9 912.1 L590.9 921.3 L604.8 929.8 L618.5 937.8 L632.2 945.1 L645.9 951.8 L659.5 957.9 L673.2 963.3 L687.0 968.0 L700.9 972.0 L714.9 975.2 L729.0 977.5 L743.3 978.9 L757.8 979.4 L772.4 978.7 L787.0 976.9 L801.6 973.9 L816.1 969.6 L830.2 964.2 L844.0 957.5 L857.2 949.7 L869.9 940.8 L881.8 931.0 L893.1 920.2 L903.6 908.7 Z" fill="#244c43"/><path d="M658.0 870.0 L657.5 876.5 L656.0 882.9 L653.6 889.1 L650.2 895.0 L646.0 900.4 L641.0 905.4 L635.3 909.7 L629.0 913.3 L622.2 916.2 L615.0 918.3 L607.6 919.6 L600.0 920.0 L592.4 919.6 L585.0 918.3 L577.8 916.2 L571.0 913.3 L564.7 909.7 L559.0 905.4 L554.0 900.4 L549.8 895.0 L546.4 889.1 L544.0 882.9 L542.5 876.5 L542.0 870.0 L542.5 863.5 L544.0 857.1 L546.4 850.9 L549.8 845.0 L554.0 839.6 L559.0 834.6 L564.7 830.3 L571.0 826.7 L577.8 823.8 L585.0 821.7 L592.4 820.4 L600.0 820.0 L607.6 820.4 L615.0 821.7 L622.2 823.8 L629.0 826.7 L635.3 830.3 L641.0 834.6 L646.0 839.6 L650.2 845.0 L653.6 850.9 L656.0 857.1 L657.5 863.5 Z" fill="#244c43"/><path d="M622.0 852.0 L621.7 854.1 L621.0 856.1 L619.7 858.1 L618.0 860.0 L615.8 861.7 L613.2 863.3 L610.3 864.7 L607.0 865.9 L603.5 866.8 L599.8 867.5 L595.9 867.9 L592.0 868.0 L588.1 867.9 L584.2 867.5 L580.5 866.8 L577.0 865.9 L573.7 864.7 L570.8 863.3 L568.2 861.7 L566.0 860.0 L564.3 858.1 L563.0 856.1 L562.3 854.1 L562.0 852.0 L562.3 849.9 L563.0 847.9 L564.3 845.9 L566.0 844.0 L568.2 842.3 L570.8 840.7 L573.7 839.3 L577.0 838.1 L580.5 837.2 L584.2 836.5 L588.1 836.1 L592.0 836.0 L595.9 836.1 L599.8 836.5 L603.5 837.2 L607.0 838.1 L610.3 839.3 L613.2 840.7 L615.8 842.3 L618.0 844.0 L619.7 845.9 L621.0 847.9 L621.7 849.9 Z" fill="#33665a"/></svg>
